<svg width="60" height="34" viewBox="0 0 60 34" fill="none" xmlns="http://www.w3.org/2000/svg">
<path d="M8 23.3746L49 28.3746C49 16.7632 44.5 3.26328 37 1.37465C32.1179 0.145257 24.4 1.97465 20 6.37465" stroke="black" stroke-linecap="round" stroke-linejoin="round"/>
<path d="M11.5742 18.0522C11.5508 18.1851 11.4961 18.2788 11.4102 18.3335C11.332 18.396 11.2578 18.4819 11.1875 18.5913H11.1406C11.0625 18.5913 10.9844 18.5991 10.9062 18.6147C10.8359 18.6304 10.7617 18.6499 10.6836 18.6733C10.6445 18.6577 10.5977 18.646 10.543 18.6382C10.4883 18.6304 10.4531 18.603 10.4375 18.5562C10.375 18.5874 10.2891 18.603 10.1797 18.603C10 18.603 9.82812 18.5522 9.66406 18.4507C9.50781 18.3491 9.34375 18.271 9.17188 18.2163C9.125 18.1226 9.06641 18.0366 8.99609 17.9585C8.93359 17.8882 8.86719 17.8179 8.79688 17.7476C8.73438 17.6772 8.67188 17.603 8.60938 17.5249C8.54688 17.4468 8.49609 17.353 8.45703 17.2437C8.44141 17.1968 8.42188 17.1694 8.39844 17.1616C8.375 17.1538 8.33984 17.1538 8.29297 17.1616C8.30078 17.0757 8.28906 17.0015 8.25781 16.939C8.23438 16.8765 8.17578 16.8374 8.08203 16.8218C8.08203 16.7202 8.06641 16.6343 8.03516 16.564C8.00391 16.4937 7.96484 16.4312 7.91797 16.3765C7.87891 16.3296 7.83203 16.2788 7.77734 16.2241C7.73047 16.1694 7.69141 16.103 7.66016 16.0249C7.58984 16.0093 7.51953 15.9976 7.44922 15.9897C7.38672 15.9897 7.31641 15.9897 7.23828 15.9897C6.86328 15.9897 6.5 16.0601 6.14844 16.2007C6.10938 16.2163 6.06641 16.2358 6.01953 16.2593C5.98047 16.2827 5.94141 16.3022 5.90234 16.3179C5.88672 16.3179 5.87109 16.3179 5.85547 16.3179C5.84766 16.3257 5.83594 16.3296 5.82031 16.3296C5.76562 16.3296 5.71484 16.3179 5.66797 16.2944C5.62109 16.2788 5.57031 16.271 5.51562 16.271C5.49219 16.271 5.46484 16.2749 5.43359 16.2827C5.41016 16.2983 5.38672 16.3101 5.36328 16.3179C5.24609 16.3569 5.13672 16.3804 5.03516 16.3882C4.71484 16.4507 4.375 16.4976 4.01562 16.5288C3.66406 16.5601 3.33984 16.6421 3.04297 16.7749C2.98047 16.8062 2.94141 16.853 2.92578 16.9155C2.91016 16.9858 2.90625 17.0522 2.91406 17.1147C2.82812 17.1772 2.76172 17.2593 2.71484 17.3608C2.67578 17.4624 2.63672 17.5679 2.59766 17.6772C2.56641 17.7944 2.53125 17.9077 2.49219 18.0171C2.45312 18.1265 2.39844 18.2202 2.32812 18.2983C2.35156 18.3452 2.36328 18.396 2.36328 18.4507C2.36328 18.5679 2.32422 18.6851 2.24609 18.8022C2.16797 18.9194 2.10938 19.0327 2.07031 19.1421C2.03125 19.2515 2 19.3569 1.97656 19.4585C1.95312 19.5679 1.91797 19.6655 1.87109 19.7515C1.82422 19.8374 1.76172 19.9077 1.68359 19.9624C1.59766 20.0171 1.48047 20.0444 1.33203 20.0444C1.19141 20.0444 1.07031 20.0171 0.96875 19.9624C0.867188 19.9077 0.785156 19.8374 0.722656 19.7515C0.660156 19.6655 0.609375 19.564 0.570312 19.4468C0.53125 19.3296 0.5 19.2124 0.476562 19.0952C0.5625 18.9233 0.644531 18.7749 0.722656 18.6499C0.800781 18.5249 0.859375 18.3647 0.898438 18.1694C1.03906 18.0679 1.14453 17.9429 1.21484 17.7944C1.27734 17.6538 1.3125 17.4976 1.32031 17.3257C1.40625 17.271 1.46875 17.1968 1.50781 17.103C1.53906 17.0171 1.55859 16.9233 1.56641 16.8218C1.37891 16.8062 1.18359 16.7905 0.980469 16.7749C0.769531 16.7593 0.574219 16.7202 0.394531 16.6577C0.394531 16.6421 0.398438 16.6265 0.40625 16.6108C0.40625 16.5952 0.40625 16.5796 0.40625 16.564C0.40625 16.4624 0.382812 16.3687 0.335938 16.2827C0.289062 16.2046 0.265625 16.1187 0.265625 16.0249V15.9312C0.328125 15.8687 0.386719 15.8022 0.441406 15.7319C0.488281 15.6694 0.539062 15.6108 0.59375 15.5562C0.648438 15.5015 0.710938 15.4546 0.78125 15.4155C0.851562 15.3843 0.941406 15.3687 1.05078 15.3687C1.19922 15.3687 1.34375 15.3765 1.48438 15.3921C1.625 15.4155 1.76953 15.4272 1.91797 15.4272C2.01953 15.4272 2.125 15.4155 2.23438 15.3921C2.40625 15.0405 2.55859 14.6851 2.69141 14.3257C2.82422 13.9585 2.92578 13.5874 2.99609 13.2124C3.05078 13.1343 3.10156 13.0444 3.14844 12.9429C3.19531 12.8335 3.23047 12.7202 3.25391 12.603C3.28516 12.4858 3.30469 12.3726 3.3125 12.2632C3.32812 12.146 3.33594 12.0405 3.33594 11.9468C3.42188 11.8452 3.48047 11.7202 3.51172 11.5718C3.55078 11.4233 3.58203 11.271 3.60547 11.1147C3.62891 10.9507 3.65234 10.7905 3.67578 10.6343C3.70703 10.478 3.76172 10.3413 3.83984 10.2241V10.1187C3.84766 10.0015 3.83594 9.896 3.80469 9.80225C3.84375 9.78662 3.86719 9.75146 3.875 9.69678C3.88281 9.64209 3.89844 9.59521 3.92188 9.55615C3.92969 9.19678 3.96875 8.84521 4.03906 8.50146C4.10938 8.1499 4.16797 7.79834 4.21484 7.44678V7.41162C4.21484 7.37256 4.19922 7.35303 4.16797 7.35303C4.14453 7.34521 4.13281 7.32178 4.13281 7.28271C4.13281 7.2124 4.14062 7.11865 4.15625 7.00146C4.17969 6.88428 4.19531 6.78662 4.20312 6.7085C4.25 6.28662 4.27344 5.86865 4.27344 5.45459C4.27344 5.10303 4.26172 4.75537 4.23828 4.41162C4.21484 4.06787 4.19141 3.72021 4.16797 3.36865L4.26172 3.22803C4.29297 3.18115 4.32031 3.13428 4.34375 3.0874C4.42188 3.05615 4.48438 3.0249 4.53125 2.99365C4.58594 2.95459 4.65625 2.93506 4.74219 2.93506C4.76562 2.93506 4.78516 2.93896 4.80078 2.94678C4.81641 2.94678 4.83203 2.94678 4.84766 2.94678C4.89453 2.97803 4.92969 3.021 4.95312 3.07568C4.98438 3.13037 5.01172 3.18115 5.03516 3.22803C5.06641 3.2749 5.10547 3.31396 5.15234 3.34521C5.19922 3.37646 5.26562 3.38428 5.35156 3.36865C5.39062 3.5874 5.5 3.70068 5.67969 3.7085C5.71875 3.81787 5.76562 3.92725 5.82031 4.03662C5.88281 4.146 5.96484 4.23193 6.06641 4.29443C6.05859 4.32568 6.05469 4.36865 6.05469 4.42334C6.05469 4.53271 6.07812 4.63818 6.125 4.73975C6.17969 4.84131 6.24609 4.93506 6.32422 5.021V5.04443C6.32422 5.13037 6.29297 5.18896 6.23047 5.22021C6.30078 5.29834 6.35156 5.39209 6.38281 5.50146C6.41406 5.61084 6.44141 5.72412 6.46484 5.84131C6.48828 5.95068 6.51562 6.05615 6.54688 6.15771C6.58594 6.25928 6.64844 6.3374 6.73438 6.39209V6.42725C6.73438 6.46631 6.71875 6.48975 6.6875 6.49756C6.66406 6.50537 6.65234 6.52881 6.65234 6.56787C6.79297 6.82568 6.89062 7.10693 6.94531 7.41162C7 7.71631 7.07031 8.00928 7.15625 8.29053C7.1875 8.32178 7.22266 8.34131 7.26172 8.34912C7.30859 8.35693 7.34375 8.37646 7.36719 8.40771C7.32031 8.43896 7.29688 8.49365 7.29688 8.57178C7.29688 8.6499 7.27734 8.7085 7.23828 8.74756C7.30078 8.80225 7.32812 8.88428 7.32031 8.99365C7.32031 9.09521 7.35156 9.16943 7.41406 9.21631V9.26318C7.41406 9.29443 7.40625 9.32178 7.39062 9.34521C7.375 9.36084 7.36719 9.38428 7.36719 9.41553V9.4624C7.42969 9.73584 7.47656 10.0093 7.50781 10.2827C7.54688 10.5562 7.58594 10.8296 7.625 11.103C7.66406 11.3765 7.70703 11.6499 7.75391 11.9233C7.80078 12.189 7.86719 12.4507 7.95312 12.7085C7.96094 12.7163 7.96484 12.728 7.96484 12.7437C7.96484 12.7827 7.94922 12.8062 7.91797 12.814C7.88672 12.814 7.87109 12.8335 7.87109 12.8726C7.87109 12.9116 7.88281 12.9585 7.90625 13.0132C7.9375 13.0601 7.96875 13.0991 8 13.1304C7.99219 13.1616 7.98828 13.2085 7.98828 13.271C7.98828 13.3882 8.00781 13.5015 8.04688 13.6108C8.09375 13.7202 8.14062 13.8296 8.1875 13.939C8.24219 14.0405 8.28906 14.1499 8.32812 14.2671C8.36719 14.3843 8.38281 14.5093 8.375 14.6421C8.42188 14.7124 8.48047 14.771 8.55078 14.8179C8.62891 14.8647 8.70703 14.9077 8.78516 14.9468C8.86328 14.9858 8.93359 15.0327 8.99609 15.0874C9.06641 15.1421 9.11328 15.2163 9.13672 15.3101C9.07422 15.3647 9.03125 15.4312 9.00781 15.5093C8.98438 15.5952 8.94141 15.6694 8.87891 15.7319C8.93359 15.8647 8.99609 15.9858 9.06641 16.0952C9.14453 16.2124 9.22266 16.3257 9.30078 16.4351L9.54688 16.7632C9.63281 16.8726 9.70703 16.9897 9.76953 17.1147C9.85547 17.1147 9.91797 17.1382 9.95703 17.1851C9.99609 17.2319 10.0586 17.2515 10.1445 17.2437C10.1758 17.3062 10.1875 17.3765 10.1797 17.4546C10.3359 17.3999 10.4922 17.3726 10.6484 17.3726C10.7344 17.3726 10.8125 17.3765 10.8828 17.3843C10.9609 17.3921 11.0391 17.396 11.1172 17.396C11.2109 17.396 11.293 17.3843 11.3633 17.3608C11.3945 17.4077 11.418 17.4585 11.4336 17.5132C11.4492 17.5757 11.4609 17.6382 11.4688 17.7007L11.5039 17.8882C11.5195 17.9507 11.543 18.0054 11.5742 18.0522ZM7.15625 14.8062C7.04688 14.2671 6.93359 13.7319 6.81641 13.2007C6.70703 12.6616 6.60938 12.1187 6.52344 11.5718C6.47656 11.2827 6.44141 10.9937 6.41797 10.7046C6.39453 10.4155 6.36328 10.1304 6.32422 9.84912C6.29297 9.56006 6.24609 9.2749 6.18359 8.99365C6.12891 8.7124 6.04688 8.43506 5.9375 8.16162V8.13818C5.9375 8.11475 5.94531 8.09521 5.96094 8.07959C5.97656 8.06396 5.98438 8.03662 5.98438 7.99756V7.95068C5.88281 7.88037 5.8125 7.78271 5.77344 7.65771C5.73438 7.5249 5.69922 7.38818 5.66797 7.24756C5.64453 7.09912 5.60938 6.9585 5.5625 6.82568C5.52344 6.68506 5.45312 6.56787 5.35156 6.47412C5.3125 6.92725 5.26953 7.38037 5.22266 7.8335C5.18359 8.27881 5.15625 8.72803 5.14062 9.18115C5.0625 9.22803 5.01172 9.30615 4.98828 9.41553C4.96484 9.5249 4.95312 9.62256 4.95312 9.7085C4.95312 9.771 4.95703 9.8374 4.96484 9.90771C4.97266 9.97021 4.98828 10.0366 5.01172 10.1069C4.87109 10.4585 4.76953 10.8218 4.70703 11.1968C4.64453 11.564 4.57422 11.9312 4.49609 12.2983C4.48828 12.3218 4.47266 12.3765 4.44922 12.4624C4.43359 12.5405 4.41406 12.6226 4.39062 12.7085C4.36719 12.7944 4.34766 12.8726 4.33203 12.9429C4.31641 13.0054 4.30859 13.0405 4.30859 13.0483C4.30078 13.103 4.29688 13.1577 4.29688 13.2124C4.30469 13.2671 4.30859 13.3218 4.30859 13.3765L4.13281 13.5522C4.10156 13.8491 4.04297 14.1382 3.95703 14.4194C3.87891 14.6929 3.79688 14.9741 3.71094 15.2632C3.76562 15.271 3.81641 15.2749 3.86328 15.2749C3.91797 15.2827 3.97266 15.2866 4.02734 15.2866C4.27734 15.2866 4.52734 15.271 4.77734 15.2397C5.03516 15.2007 5.28906 15.1655 5.53906 15.1343C5.625 15.1187 5.71484 15.1069 5.80859 15.0991C5.90234 15.0835 5.99219 15.0757 6.07812 15.0757C6.11719 15.0679 6.16406 15.0679 6.21875 15.0757C6.27344 15.0757 6.32031 15.0718 6.35938 15.064C6.42188 15.0483 6.46094 15.0249 6.47656 14.9937C6.5 14.9546 6.54297 14.9312 6.60547 14.9233C6.65234 14.9468 6.70703 14.9585 6.76953 14.9585C6.83984 14.9585 6.90625 14.9429 6.96875 14.9116C7.03125 14.8804 7.09375 14.8452 7.15625 14.8062ZM17.5742 7.56396C17.5586 7.65771 17.5352 7.73975 17.5039 7.81006C17.4805 7.87256 17.4766 7.9585 17.4922 8.06787C17.4141 8.07568 17.3516 8.10303 17.3047 8.1499C17.2656 8.18896 17.2305 8.23584 17.1992 8.29053C17.1758 8.34521 17.1484 8.40381 17.1172 8.46631C17.0938 8.521 17.0625 8.57178 17.0234 8.61865C17.0859 8.8999 17.1211 9.18506 17.1289 9.47412C17.1367 9.76318 17.1562 10.0483 17.1875 10.3296C17.2266 10.689 17.2852 11.0444 17.3633 11.396C17.4492 11.7397 17.4922 12.0913 17.4922 12.4507C17.4922 12.5601 17.4883 12.6616 17.4805 12.7554C17.4805 12.8491 17.4805 12.9468 17.4805 13.0483C17.4805 13.1108 17.4805 13.1772 17.4805 13.2476C17.4883 13.3101 17.4922 13.3726 17.4922 13.4351C17.4922 13.6616 17.4609 13.8882 17.3984 14.1147C17.3438 14.3413 17.3008 14.5679 17.2695 14.7944C17.1758 14.8804 17.0938 14.9741 17.0234 15.0757C16.9609 15.1772 16.8945 15.271 16.8242 15.3569C16.7539 15.4429 16.6719 15.5171 16.5781 15.5796C16.4844 15.6499 16.3672 15.6968 16.2266 15.7202C16.2031 15.7983 16.1562 15.8569 16.0859 15.896C16.0234 15.9351 15.9688 15.9897 15.9219 16.0601H15.8984C15.7031 16.0601 15.5352 16.0327 15.3945 15.978C15.2539 15.9233 15.1211 15.8608 14.9961 15.7905C14.8789 15.7202 14.7578 15.646 14.6328 15.5679C14.5078 15.4897 14.3633 15.4272 14.1992 15.3804C13.9805 15.2007 13.7812 15.0054 13.6016 14.7944C13.4219 14.5757 13.2188 14.3804 12.9922 14.2085C12.9375 14.0522 12.8633 13.9233 12.7695 13.8218C12.6836 13.7202 12.5977 13.603 12.5117 13.4702C12.4727 13.4155 12.4414 13.3647 12.418 13.3179C12.4023 13.271 12.3789 13.2163 12.3477 13.1538C12.3242 13.0913 12.2852 13.0483 12.2305 13.0249C12.1836 13.0015 12.1406 12.9741 12.1016 12.9429C12.0391 12.7007 11.9492 12.478 11.832 12.2749C11.7148 12.0718 11.5781 11.8765 11.4219 11.689C11.375 11.7749 11.3359 11.8687 11.3047 11.9702C11.2812 12.064 11.2578 12.1616 11.2344 12.2632C11.2109 12.3569 11.1797 12.4546 11.1406 12.5562C11.1094 12.6499 11.0664 12.7358 11.0117 12.814V12.8491C11.0117 12.8882 11.0273 12.9116 11.0586 12.9194C11.0898 12.9272 11.1055 12.9507 11.1055 12.9897C11.1055 12.9976 11.1016 13.0054 11.0938 13.0132C11.0938 13.021 11.0938 13.0288 11.0938 13.0366C11.0547 13.0679 11.0234 13.1069 11 13.1538C10.9844 13.2007 10.9453 13.228 10.8828 13.2358C10.8906 13.2749 10.8945 13.314 10.8945 13.353V13.4585C10.8945 13.6851 10.8672 13.9116 10.8125 14.1382C10.7656 14.3647 10.7422 14.5952 10.7422 14.8296V14.9819C10.7422 15.0366 10.7461 15.0874 10.7539 15.1343C10.7695 15.1812 10.793 15.228 10.8242 15.2749C10.8555 15.3218 10.8711 15.3647 10.8711 15.4038C10.8711 15.4585 10.8477 15.5093 10.8008 15.5562C10.8555 15.5952 10.918 15.6382 10.9883 15.6851C11.0586 15.7319 11.1211 15.7827 11.1758 15.8374C11.2383 15.8999 11.2891 15.9624 11.3281 16.0249C11.3672 16.0952 11.3867 16.1694 11.3867 16.2476C11.3867 16.3804 11.3438 16.4741 11.2578 16.5288C11.1719 16.5835 11.0664 16.6265 10.9414 16.6577C10.8242 16.689 10.6992 16.7163 10.5664 16.7397C10.4414 16.771 10.3359 16.8218 10.25 16.8921H10.2148C10.1211 16.8921 10.0508 16.8647 10.0039 16.8101C9.95703 16.7554 9.88672 16.728 9.79297 16.728C9.64453 16.4858 9.54297 16.2124 9.48828 15.9077C9.43359 15.6108 9.40625 15.3257 9.40625 15.0522C9.40625 14.7163 9.4375 14.3804 9.5 14.0444C9.55469 13.7085 9.625 13.3765 9.71094 13.0483C9.78906 12.7202 9.875 12.396 9.96875 12.0757C10.0703 11.7476 10.1641 11.4194 10.25 11.0913L10.2617 11.0562C10.2617 11.0171 10.25 10.9897 10.2266 10.9741C10.2109 10.9585 10.2031 10.9351 10.2031 10.9038C10.2031 10.8882 10.207 10.8804 10.2148 10.8804C10.2383 10.8022 10.2617 10.728 10.2852 10.6577C10.3164 10.5874 10.3398 10.5093 10.3555 10.4233C10.4023 10.2046 10.4336 9.98193 10.4492 9.75537C10.4727 9.521 10.4844 9.29053 10.4844 9.06396C10.4922 8.8374 10.5 8.61084 10.5078 8.38428C10.5234 8.1499 10.5508 7.91943 10.5898 7.69287C10.6523 7.63037 10.7109 7.56396 10.7656 7.49365C10.8203 7.42334 10.8906 7.36084 10.9766 7.30615C11.1328 7.31396 11.2891 7.3374 11.4453 7.37646C11.6016 7.41553 11.75 7.47803 11.8906 7.56396C11.9844 7.8999 12.0469 8.23584 12.0781 8.57178C12.1172 8.90771 12.1797 9.24365 12.2656 9.57959V9.61475C12.2656 9.65381 12.2852 9.67334 12.3242 9.67334C12.3711 9.66553 12.4062 9.67725 12.4297 9.7085C12.4141 9.73193 12.4023 9.75928 12.3945 9.79053C12.3945 9.82178 12.3945 9.85303 12.3945 9.88428V10.0835C12.4102 10.146 12.4297 10.2124 12.4531 10.2827C12.4766 10.353 12.5273 10.396 12.6055 10.4116C12.6445 10.6616 12.7031 10.8921 12.7812 11.103C12.8594 11.314 12.9492 11.5171 13.0508 11.7124C13.1523 11.9077 13.2617 12.103 13.3789 12.2983C13.4961 12.4858 13.6172 12.6851 13.7422 12.896C13.9375 13.0444 14.1055 13.2163 14.2461 13.4116C14.3867 13.5991 14.5273 13.7827 14.668 13.9624C14.8164 14.1343 14.9805 14.2866 15.1602 14.4194C15.3477 14.5522 15.5898 14.6343 15.8867 14.6655C15.9258 14.6343 15.9531 14.5913 15.9688 14.5366L16.0273 14.3726C16.0508 14.3179 16.0742 14.271 16.0977 14.2319C16.1289 14.1851 16.1719 14.1499 16.2266 14.1265C16.2422 13.9077 16.2578 13.6851 16.2734 13.4585C16.2969 13.2319 16.3477 13.0171 16.4258 12.814C16.3867 12.7437 16.3672 12.6577 16.3672 12.5562C16.3672 12.478 16.3711 12.4038 16.3789 12.3335C16.3945 12.2632 16.4023 12.1929 16.4023 12.1226C16.4023 11.9741 16.3711 11.853 16.3086 11.7593C16.3086 11.7046 16.3125 11.6499 16.3203 11.5952C16.3281 11.5327 16.3516 11.4741 16.3906 11.4194C16.3281 11.2632 16.2773 11.0991 16.2383 10.9272C16.207 10.7554 16.1914 10.5796 16.1914 10.3999C16.1914 10.2983 16.2031 10.1929 16.2266 10.0835C16.1797 9.96631 16.1484 9.82959 16.1328 9.67334L16.0859 9.19287C16.0703 9.02881 16.0469 8.87646 16.0156 8.73584C15.9844 8.59521 15.9258 8.48193 15.8398 8.396C15.8867 8.32568 15.9102 8.24365 15.9102 8.1499C15.9102 7.99365 15.8867 7.84521 15.8398 7.70459C15.793 7.56396 15.7695 7.41553 15.7695 7.25928C15.7695 7.1499 15.793 7.04053 15.8398 6.93115C16.0117 6.93896 16.1797 6.9585 16.3438 6.98975C16.5156 7.01318 16.6836 7.0249 16.8477 7.0249C16.8945 7.0874 16.9492 7.13818 17.0117 7.17725C17.0742 7.21631 17.1406 7.25537 17.2109 7.29443C17.2812 7.32568 17.3477 7.36084 17.4102 7.3999C17.4805 7.43896 17.5352 7.49365 17.5742 7.56396ZM21.2773 13.6577C21.2383 13.7202 21.1914 13.7788 21.1367 13.8335C21.082 13.8804 21.0312 13.9312 20.9844 13.9858C20.9297 14.0093 20.8672 14.021 20.7969 14.021C20.7344 14.021 20.6719 14.021 20.6094 14.021C20.5547 14.0132 20.5 14.0132 20.4453 14.021C20.3984 14.021 20.3594 14.0366 20.3281 14.0679C20.2656 14.0522 20.2188 14.0249 20.1875 13.9858C20.1562 13.939 20.1016 13.9116 20.0234 13.9038C19.9922 13.896 19.9609 13.896 19.9297 13.9038C19.8125 13.771 19.7031 13.6304 19.6016 13.4819C19.5078 13.3335 19.418 13.1929 19.332 13.0601C19.3242 12.771 19.3008 12.478 19.2617 12.1812C19.2539 12.1108 19.2422 12.0405 19.2266 11.9702C19.2109 11.8999 19.1992 11.8335 19.1914 11.771C19.1914 11.6929 19.1953 11.6187 19.2031 11.5483C19.2188 11.4702 19.2305 11.3999 19.2383 11.3374C19.2695 11.1108 19.3047 10.8882 19.3438 10.6694C19.3828 10.4507 19.418 10.228 19.4492 10.0015C19.4805 9.79834 19.4961 9.5874 19.4961 9.36865C19.4961 9.14209 19.4609 8.93115 19.3906 8.73584L19.3789 8.67725C19.3945 8.61475 19.4102 8.56396 19.4258 8.5249C19.4492 8.47803 19.4648 8.42725 19.4727 8.37256C19.4883 8.28662 19.4688 8.22412 19.4141 8.18506C19.4375 8.12256 19.4766 8.0835 19.5312 8.06787C19.5859 8.04443 19.6172 7.99756 19.625 7.92725C19.6328 7.896 19.6328 7.86475 19.625 7.8335C19.6875 7.81006 19.75 7.79053 19.8125 7.7749C19.8828 7.75146 19.9492 7.74756 20.0117 7.76318C20.1133 7.77881 20.2031 7.81396 20.2812 7.86865C20.3594 7.91553 20.4336 7.97021 20.5039 8.03271C20.6289 8.40771 20.6797 8.80615 20.6562 9.22803C20.6328 9.64209 20.5938 10.0601 20.5391 10.4819C20.4844 10.9038 20.4492 11.3179 20.4336 11.7241C20.418 12.1226 20.4805 12.4937 20.6211 12.8374L20.6445 12.8491C20.6836 12.8569 20.7148 12.8452 20.7383 12.814C20.7617 12.7749 20.793 12.7593 20.832 12.7671C20.8633 12.7827 20.8828 12.7905 20.8906 12.7905C20.9219 12.9468 20.9727 13.0952 21.043 13.2358C21.1133 13.3765 21.1914 13.5171 21.2773 13.6577ZM33.6641 13.7866C33.625 13.9116 33.6133 14.0366 33.6289 14.1616C33.6055 14.1929 33.5781 14.2124 33.5469 14.2202C33.5156 14.228 33.4844 14.2397 33.4531 14.2554C33.4219 14.2632 33.3945 14.2788 33.3711 14.3022C33.3555 14.3179 33.3555 14.353 33.3711 14.4077C33.1133 14.4233 32.8672 14.478 32.6328 14.5718C32.3984 14.6655 32.168 14.7671 31.9414 14.8765C31.8242 14.8374 31.7227 14.7905 31.6367 14.7358C31.5508 14.6812 31.4414 14.646 31.3086 14.6304C31.1758 14.3647 31.0508 14.0874 30.9336 13.7983C30.8242 13.5015 30.7695 13.2046 30.7695 12.9077C30.7695 12.689 30.8086 12.4897 30.8867 12.3101C30.8867 12.0757 30.9062 11.8452 30.9453 11.6187C30.9844 11.3921 31.0273 11.1694 31.0742 10.9507C31.1289 10.7241 31.1758 10.4976 31.2148 10.271C31.2539 10.0444 31.2734 9.81396 31.2734 9.57959V9.32178C31.2578 9.32178 31.2383 9.34131 31.2148 9.38037C31.1914 9.41162 31.168 9.45068 31.1445 9.49756C31.1289 9.53662 31.1133 9.57568 31.0977 9.61475C31.082 9.65381 31.0703 9.67725 31.0625 9.68506C30.9297 9.78662 30.8242 9.91553 30.7461 10.0718C30.6758 10.2202 30.5977 10.3608 30.5117 10.4937C30.4023 10.6577 30.2852 10.8179 30.1602 10.9741C30.043 11.1304 29.8945 11.2515 29.7148 11.3374V11.3608C29.7148 11.3999 29.7031 11.4272 29.6797 11.4429C29.6562 11.4585 29.6523 11.4976 29.668 11.5601C29.4727 11.6226 29.2891 11.7124 29.1172 11.8296C28.9531 11.9468 28.8164 12.0952 28.707 12.2749C28.5508 12.314 28.4023 12.3687 28.2617 12.439C28.1289 12.5015 27.9922 12.5718 27.8516 12.6499C27.7891 12.6812 27.7227 12.7202 27.6523 12.7671C27.582 12.814 27.5117 12.8452 27.4414 12.8608C27.3789 12.8843 27.293 12.8999 27.1836 12.9077C27.082 12.9155 26.9727 12.9233 26.8555 12.9312C26.7461 12.939 26.6367 12.9429 26.5273 12.9429H26.2695C26.2305 12.9429 26.1797 12.9233 26.1172 12.8843C26.0547 12.8452 25.9844 12.8022 25.9062 12.7554C25.8359 12.7085 25.7617 12.6655 25.6836 12.6265C25.6055 12.5796 25.5312 12.5483 25.4609 12.5327C25.3984 12.3296 25.3086 12.1499 25.1914 11.9937C25.082 11.8296 24.9648 11.6655 24.8398 11.5015C24.8008 11.314 24.7461 11.1187 24.6758 10.9155C24.6133 10.7124 24.5 10.5444 24.3359 10.4116C24.375 10.3569 24.3945 10.2944 24.3945 10.2241C24.3945 10.1382 24.375 10.0562 24.3359 9.97803C24.2969 9.8999 24.2773 9.81396 24.2773 9.72021C24.2773 9.65771 24.2812 9.61084 24.2891 9.57959C24.2031 9.67334 24.1406 9.79443 24.1016 9.94287C24.0703 10.0835 24.0547 10.2124 24.0547 10.3296C24.0547 10.4233 24.0664 10.5093 24.0898 10.5874C24.0117 10.6968 23.9609 10.8335 23.9375 10.9976C23.9219 11.1616 23.9141 11.3062 23.9141 11.4312C23.9141 11.5874 23.9258 11.7397 23.9492 11.8882C23.8242 12.0132 23.7617 12.1655 23.7617 12.3452C23.7617 12.4468 23.7852 12.5366 23.832 12.6147C23.832 12.646 23.8242 12.6694 23.8086 12.6851C23.793 12.7007 23.7734 12.7124 23.75 12.7202C23.7344 12.728 23.7148 12.7397 23.6914 12.7554C23.6758 12.7632 23.668 12.7827 23.668 12.814C23.668 12.853 23.668 12.896 23.668 12.9429C23.6758 12.9897 23.6797 13.0366 23.6797 13.0835C23.6797 13.1929 23.6758 13.3062 23.668 13.4233C23.6602 13.5405 23.6562 13.6538 23.6562 13.7632C23.6562 13.9897 23.6758 14.1538 23.7148 14.2554C23.7617 14.3491 23.8164 14.4194 23.8789 14.4663C23.9492 14.5132 24.0234 14.5601 24.1016 14.6069C24.1797 14.6538 24.2578 14.7437 24.3359 14.8765C24.3125 14.9468 24.2695 15.0054 24.207 15.0522C24.1523 15.0913 24.0977 15.1343 24.043 15.1812C23.9961 15.2202 23.9531 15.2671 23.9141 15.3218C23.875 15.3765 23.8594 15.4546 23.8672 15.5562H23.8086C23.707 15.5562 23.6094 15.5718 23.5156 15.603C23.4219 15.6343 23.3242 15.6499 23.2227 15.6499C23.1992 15.6499 23.1758 15.646 23.1523 15.6382C23.1289 15.6382 23.1055 15.6382 23.082 15.6382L22.9648 15.5679C22.9258 15.5444 22.8867 15.5327 22.8477 15.5327C22.8086 15.5327 22.7578 15.5405 22.6953 15.5562C22.5859 15.2046 22.5 14.8413 22.4375 14.4663C22.3828 14.0913 22.3555 13.7241 22.3555 13.3647C22.3555 13.3257 22.3633 13.2866 22.3789 13.2476C22.4023 13.2007 22.4336 13.1851 22.4727 13.2007V12.978C22.4727 12.7358 22.4922 12.5015 22.5312 12.2749C22.5781 12.0405 22.6016 11.7983 22.6016 11.5483C22.6016 11.478 22.5977 11.4077 22.5898 11.3374C22.5898 11.2671 22.5859 11.2007 22.5781 11.1382C22.6172 11.0054 22.6562 10.8726 22.6953 10.7397C22.7422 10.5991 22.7656 10.4546 22.7656 10.3062C22.7656 10.2437 22.7539 10.1694 22.7305 10.0835C22.793 10.0366 22.8398 9.97803 22.8711 9.90771C22.9023 9.82959 22.9258 9.74756 22.9414 9.66162C22.957 9.56787 22.9688 9.47803 22.9766 9.39209C22.9844 9.30615 22.9922 9.22803 23 9.15771C23.0781 9.00146 23.1211 8.8335 23.1289 8.65381C23.1367 8.47412 23.1758 8.30615 23.2461 8.1499C23.2383 8.11865 23.2344 8.06396 23.2344 7.98584C23.2344 7.82959 23.2578 7.67334 23.3047 7.51709C23.3594 7.35303 23.4648 7.22803 23.6211 7.14209C23.7617 7.19678 23.9258 7.22412 24.1133 7.22412C24.293 7.22412 24.4648 7.19678 24.6289 7.14209C24.6758 7.15771 24.7188 7.17725 24.7578 7.20068C24.7969 7.21631 24.8359 7.23584 24.875 7.25928C24.9219 7.2749 24.9688 7.29053 25.0156 7.30615C25.0625 7.31396 25.1172 7.31396 25.1797 7.30615C25.2578 7.53271 25.3242 7.76318 25.3789 7.99756C25.4414 8.23193 25.4883 8.47021 25.5195 8.7124C25.5352 8.81396 25.5391 8.92334 25.5312 9.04053C25.5312 9.15771 25.5391 9.26709 25.5547 9.36865C25.5625 9.43115 25.582 9.48975 25.6133 9.54443C25.6445 9.59131 25.6758 9.646 25.707 9.7085C25.7383 9.771 25.7617 9.84131 25.7773 9.91943C25.8008 9.99756 25.8086 10.0952 25.8008 10.2124C25.8867 10.4155 25.9805 10.6108 26.082 10.7983C26.1914 10.978 26.3086 11.1577 26.4336 11.3374C26.5039 11.3608 26.5664 11.3921 26.6211 11.4312C26.6758 11.4624 26.7109 11.5171 26.7266 11.5952C26.7969 11.5952 26.8594 11.6069 26.9141 11.6304L27.1133 11.689C27.4102 11.5952 27.6836 11.4702 27.9336 11.314C28.1914 11.1577 28.4609 11.0249 28.7422 10.9155C29.0859 10.5796 29.3828 10.2085 29.6328 9.80225C29.8828 9.38818 30.1328 8.97803 30.3828 8.57178V8.31396C30.4297 8.29053 30.4688 8.26318 30.5 8.23193C30.5391 8.19287 30.5859 8.16553 30.6406 8.1499C30.6484 8.05615 30.668 7.96631 30.6992 7.88037C30.7383 7.78662 30.7773 7.70068 30.8164 7.62256C30.8633 7.53662 30.9023 7.45459 30.9336 7.37646C30.9648 7.29053 30.9805 7.20068 30.9805 7.10693C30.9805 7.05225 30.9766 7.00537 30.9688 6.96631C31.0859 6.84912 31.2266 6.79053 31.3906 6.79053C31.5469 6.79053 31.7031 6.82959 31.8594 6.90771C32.0234 6.97803 32.1758 7.04443 32.3164 7.10693C32.4023 7.29443 32.4648 7.49365 32.5039 7.70459C32.5508 7.90771 32.582 8.11865 32.5977 8.3374C32.6133 8.55615 32.6211 8.7749 32.6211 8.99365V9.82568C32.6133 9.88818 32.5898 9.93506 32.5508 9.96631C32.5195 9.98975 32.4961 10.0288 32.4805 10.0835V10.2007C32.4805 10.2397 32.4766 10.2788 32.4688 10.3179C32.4688 10.4819 32.4492 10.6538 32.4102 10.8335C32.3711 11.0601 32.3203 11.2905 32.2578 11.5249C32.2031 11.7515 32.1758 11.9819 32.1758 12.2163C32.1758 12.3022 32.1797 12.3882 32.1875 12.4741C32.1953 12.5601 32.2109 12.646 32.2344 12.7319C32.1953 12.8022 32.1758 12.8921 32.1758 13.0015C32.1758 13.1265 32.1953 13.2437 32.2344 13.353C32.2812 13.4546 32.3359 13.5562 32.3984 13.6577C32.5078 13.6577 32.6172 13.6538 32.7266 13.646C32.8359 13.6382 32.9492 13.6343 33.0664 13.6343C33.1758 13.6343 33.2773 13.646 33.3711 13.6694C33.4648 13.6851 33.5625 13.7241 33.6641 13.7866ZM41.4688 7.81006V7.85693C41.4141 7.87256 41.3867 7.91162 41.3867 7.97412C41.3008 8.01318 41.2109 8.04443 41.1172 8.06787C41.0234 8.0835 40.9336 8.11084 40.8477 8.1499C40.7617 8.14209 40.6719 8.13818 40.5781 8.13818C40.4922 8.13037 40.4062 8.12646 40.3203 8.12646C40.0859 8.12646 39.8516 8.13428 39.6172 8.1499C39.3828 8.16553 39.1484 8.16553 38.9141 8.1499C38.8047 8.2124 38.6836 8.26318 38.5508 8.30225C38.4258 8.3335 38.3047 8.34912 38.1875 8.34912C38.0938 8.34912 38.0117 8.3374 37.9414 8.31396C37.7539 8.40771 37.5469 8.48584 37.3203 8.54834C37.1016 8.61084 36.8789 8.67334 36.6523 8.73584C36.4258 8.79053 36.207 8.85693 35.9961 8.93506C35.793 9.00537 35.6133 9.10693 35.457 9.23975C35.4414 9.34912 35.4297 9.4585 35.4219 9.56787C35.4141 9.66943 35.4102 9.771 35.4102 9.87256C35.4102 9.98193 35.4141 10.0835 35.4219 10.1772C35.4375 10.271 35.4648 10.3647 35.5039 10.4585C35.543 10.4741 35.5859 10.4858 35.6328 10.4937C35.6875 10.5015 35.7344 10.5054 35.7734 10.5054C35.8125 10.5054 35.8516 10.5015 35.8906 10.4937C35.9297 10.478 35.957 10.4507 35.9727 10.4116C36.0898 10.396 36.207 10.3921 36.3242 10.3999C36.4414 10.3999 36.5586 10.3999 36.6758 10.3999C36.793 10.3999 36.9062 10.396 37.0156 10.3882C37.1328 10.3804 37.2461 10.3608 37.3555 10.3296C37.4805 10.2983 37.6016 10.2788 37.7188 10.271C37.8438 10.2632 37.9648 10.2554 38.082 10.2476C38.1992 10.2397 38.3203 10.228 38.4453 10.2124C38.5703 10.189 38.6992 10.146 38.832 10.0835C38.9336 10.1226 39.0352 10.1421 39.1367 10.1421C39.2461 10.1421 39.3516 10.1499 39.4531 10.1655C39.5078 10.2046 39.5508 10.2476 39.582 10.2944C39.6211 10.3413 39.6406 10.396 39.6406 10.4585C39.6406 10.5679 39.6016 10.6772 39.5234 10.7866C39.4453 10.896 39.3828 10.9976 39.3359 11.0913H39.207C39.0195 11.0913 38.8359 11.1187 38.6562 11.1733C38.4844 11.2202 38.3086 11.2788 38.1289 11.3491C37.957 11.4116 37.7812 11.4702 37.6016 11.5249C37.4297 11.5718 37.25 11.5952 37.0625 11.5952C37.0312 11.5952 37.0117 11.6147 37.0039 11.6538C37.0039 11.6851 36.9961 11.7085 36.9805 11.7241C36.9414 11.7163 36.8828 11.7124 36.8047 11.7124C36.625 11.7124 36.4531 11.7319 36.2891 11.771C36.125 11.8101 35.957 11.8296 35.7852 11.8296C35.7383 11.8296 35.6914 11.8296 35.6445 11.8296C35.5977 11.8218 35.5508 11.814 35.5039 11.8062C35.4648 11.8687 35.4141 11.9116 35.3516 11.9351C35.2891 11.9507 35.2305 11.9819 35.1758 12.0288C35.1523 12.0991 35.1367 12.1851 35.1289 12.2866C35.1289 12.3882 35.125 12.4937 35.1172 12.603C35.1172 12.7046 35.1094 12.8022 35.0938 12.896C35.0781 12.9897 35.0469 13.064 35 13.1187C35.0078 13.1577 35.0391 13.1733 35.0938 13.1655C35.1484 13.1499 35.1758 13.1733 35.1758 13.2358C35.1758 13.3062 35.168 13.3804 35.1523 13.4585C35.1367 13.5366 35.1289 13.6147 35.1289 13.6929C35.1289 13.8413 35.1445 14.0054 35.1758 14.1851C35.2148 14.3569 35.2695 14.5171 35.3398 14.6655C35.418 14.814 35.5195 14.939 35.6445 15.0405C35.7695 15.1343 35.9258 15.1812 36.1133 15.1812C36.2383 15.1812 36.3555 15.1577 36.4648 15.1108C36.5742 15.064 36.6641 14.9858 36.7344 14.8765L36.793 14.8647C36.8242 14.8647 36.8516 14.8687 36.875 14.8765C36.9062 14.8843 36.9375 14.8882 36.9688 14.8882C37.0156 14.8882 37.0742 14.8608 37.1445 14.8062C37.2227 14.7437 37.3047 14.6733 37.3906 14.5952C37.4844 14.5171 37.5781 14.4429 37.6719 14.3726C37.7656 14.2944 37.8555 14.2397 37.9414 14.2085C37.9961 14.0991 38.0469 13.9897 38.0938 13.8804C38.1484 13.771 38.2266 13.6851 38.3281 13.6226V13.2827C38.4062 13.1968 38.4883 13.1187 38.5742 13.0483C38.668 12.978 38.7383 12.8882 38.7852 12.7788C38.8242 12.7944 38.8594 12.8062 38.8906 12.814C38.9297 12.8218 38.9688 12.8257 39.0078 12.8257C39.0469 12.8257 39.0859 12.8218 39.125 12.814C39.1719 12.8062 39.2148 12.7944 39.2539 12.7788C39.3164 12.8647 39.3633 12.9624 39.3945 13.0718C39.4336 13.1733 39.4805 13.271 39.5352 13.3647C39.4648 13.5054 39.3828 13.6733 39.2891 13.8687C39.1953 14.064 39.0938 14.2593 38.9844 14.4546C38.875 14.6499 38.7578 14.8374 38.6328 15.0171C38.5156 15.189 38.3984 15.3218 38.2812 15.4155C38.2578 15.439 38.207 15.4663 38.1289 15.4976C38.043 15.5601 37.9648 15.6187 37.8945 15.6733C37.8242 15.7358 37.7578 15.8062 37.6953 15.8843C37.4688 15.9546 37.25 16.0483 37.0391 16.1655C36.8359 16.2827 36.6328 16.396 36.4297 16.5054C36.3359 16.4819 36.2344 16.4702 36.125 16.4702C36.0312 16.4702 35.9375 16.4741 35.8438 16.4819C35.75 16.4976 35.6484 16.5054 35.5391 16.5054C35.5078 16.4663 35.4609 16.439 35.3984 16.4233C35.3438 16.4155 35.3242 16.3765 35.3398 16.3062C35.0742 16.2905 34.8594 16.2163 34.6953 16.0835C34.5312 15.9585 34.3906 15.8022 34.2734 15.6147C34.1641 15.4272 34.0742 15.2241 34.0039 15.0054C33.9336 14.7866 33.8594 14.5757 33.7812 14.3726V14.3374C33.7812 14.2983 33.7969 14.2749 33.8281 14.2671C33.8594 14.2593 33.875 14.2358 33.875 14.1968C33.875 14.1812 33.8711 14.1694 33.8633 14.1616C33.8398 14.0757 33.8203 14.0015 33.8047 13.939C33.7891 13.8765 33.7812 13.8022 33.7812 13.7163C33.7812 13.5913 33.7891 13.4702 33.8047 13.353C33.8203 13.228 33.8281 13.103 33.8281 12.978C33.8281 12.853 33.8125 12.7437 33.7812 12.6499C33.8125 12.6108 33.8398 12.5601 33.8633 12.4976C33.8789 12.4272 33.8906 12.3569 33.8984 12.2866C33.9062 12.2163 33.9102 12.146 33.9102 12.0757C33.918 12.0054 33.9297 11.9429 33.9453 11.8882C33.9141 11.8022 33.8867 11.728 33.8633 11.6655C33.8398 11.5952 33.8281 11.5132 33.8281 11.4194V11.3374C33.9062 11.2046 33.9727 11.0679 34.0273 10.9272C34.082 10.7866 34.1406 10.6421 34.2031 10.4937V10.4585C34.2031 10.2319 34.1953 10.0054 34.1797 9.77881C34.1641 9.55225 34.1562 9.32568 34.1562 9.09912V8.87646C34.1562 8.79834 34.1602 8.72412 34.168 8.65381C34.2305 8.62256 34.2773 8.57959 34.3086 8.5249C34.3398 8.47021 34.3867 8.42725 34.4492 8.396H34.8359L34.9062 8.27881C34.9297 8.23975 34.9453 8.19678 34.9531 8.1499C35.0391 8.12646 35.1211 8.09521 35.1992 8.05615C35.2852 8.00928 35.3633 7.9624 35.4336 7.91553C35.543 7.85303 35.6406 7.79834 35.7266 7.75146C35.8203 7.69678 35.9102 7.65381 35.9961 7.62256C36.0898 7.5835 36.1875 7.55225 36.2891 7.52881C36.3906 7.50537 36.5078 7.48584 36.6406 7.47021C36.7031 7.47021 36.7422 7.4585 36.7578 7.43506C36.7812 7.41162 36.8125 7.38428 36.8516 7.35303C36.9453 7.36865 37.0391 7.38428 37.1328 7.3999C37.2266 7.40771 37.3203 7.41162 37.4141 7.41162C37.6016 7.41162 37.7773 7.37646 37.9414 7.30615C38.1758 7.30615 38.4062 7.30225 38.6328 7.29443C38.8672 7.28662 39.1016 7.28271 39.3359 7.28271C39.5391 7.28271 39.7422 7.29053 39.9453 7.30615C40.1484 7.32178 40.3477 7.34912 40.543 7.38818C40.6133 7.36475 40.6914 7.35303 40.7773 7.35303C40.8711 7.35303 40.9648 7.36475 41.0586 7.38818C41.1602 7.40381 41.2578 7.40381 41.3516 7.38818C41.3594 7.47412 41.3789 7.54834 41.4102 7.61084C41.4492 7.66553 41.4688 7.73193 41.4688 7.81006ZM21.5371 24.4917C21.7103 24.4917 21.8379 24.5464 21.9199 24.6558C22.0111 24.7651 22.0566 24.8882 22.0566 25.0249C22.0566 25.1616 22.0111 25.2892 21.9199 25.4077C21.8379 25.5171 21.7103 25.5718 21.5371 25.5718C21.3184 25.5809 21.0996 25.5809 20.8809 25.5718C20.6712 25.5535 20.4616 25.5353 20.252 25.5171C20.2611 26.2371 20.2474 26.9572 20.2109 27.6772C20.1836 28.3973 20.1107 29.1128 19.9922 29.8237C19.974 29.9787 19.8919 30.0926 19.7461 30.1655C19.6003 30.2384 19.459 30.2521 19.3223 30.2065C19.1673 30.161 19.0579 30.0744 18.9941 29.9468C18.9395 29.8283 18.9258 29.6916 18.9531 29.5366C19.0625 28.8439 19.1217 28.1512 19.1309 27.4585C19.1491 26.7658 19.1491 26.0685 19.1309 25.3667C18.7845 25.312 18.4336 25.2573 18.0781 25.2026C17.7227 25.1388 17.3717 25.0841 17.0254 25.0386C16.8704 25.0203 16.7611 24.9383 16.6973 24.7925C16.6243 24.6375 16.6061 24.4963 16.6426 24.3687C16.6882 24.2137 16.7747 24.1089 16.9023 24.0542C17.0299 23.9904 17.1667 23.9676 17.3125 23.9858C17.6133 24.0314 17.9141 24.0815 18.2148 24.1362C18.5156 24.1818 18.821 24.2274 19.1309 24.2729C19.1217 24.2274 19.1172 24.159 19.1172 24.0679C19.1172 23.2476 19.1126 22.4364 19.1035 21.6343C19.1035 20.8322 19.1445 20.021 19.2266 19.2007C19.2448 19.0549 19.2995 18.9272 19.3906 18.8179C19.4909 18.7085 19.6185 18.6538 19.7734 18.6538C19.9102 18.6538 20.0378 18.7085 20.1562 18.8179C20.2839 18.9272 20.3385 19.0549 20.3203 19.2007C20.2292 20.0757 20.1836 20.9461 20.1836 21.812C20.1927 22.6688 20.2064 23.5392 20.2246 24.4233C20.4434 24.4416 20.6621 24.4598 20.8809 24.478C21.0996 24.4871 21.3184 24.4917 21.5371 24.4917ZM22.8496 29.1265C22.9225 28.689 23.0046 28.2606 23.0957 27.8413C23.196 27.4129 23.2689 26.98 23.3145 26.5425C23.3509 26.1141 23.3555 25.6948 23.3281 25.2847C23.3099 24.8654 23.3372 24.4416 23.4102 24.0132C23.4284 23.8674 23.5104 23.758 23.6562 23.6851C23.8112 23.6121 23.9525 23.5939 24.0801 23.6304C24.235 23.6759 24.3398 23.7625 24.3945 23.8901C24.4583 24.0177 24.4811 24.1545 24.4629 24.3003C24.4264 24.5099 24.4082 24.7241 24.4082 24.9429C24.4173 25.1616 24.4264 25.3804 24.4355 25.5991C24.4355 26.0184 24.4082 26.4377 24.3535 26.8569C24.2988 27.2944 24.2259 27.7228 24.1348 28.1421C24.0527 28.5614 23.9753 28.9852 23.9023 29.4136C23.875 29.5594 23.7884 29.6688 23.6426 29.7417C23.4967 29.8146 23.36 29.8328 23.2324 29.7964C23.0775 29.7508 22.9681 29.6642 22.9043 29.5366C22.8405 29.409 22.8223 29.2723 22.8496 29.1265ZM23.5059 22.8374C23.4421 22.8192 23.3783 22.7918 23.3145 22.7554C23.2507 22.7098 23.2051 22.6551 23.1777 22.5913C23.1504 22.5184 23.1276 22.4546 23.1094 22.3999C23.0911 22.3452 23.082 22.2814 23.082 22.2085C23.082 22.1265 23.0957 22.0444 23.123 21.9624C23.1595 21.7983 23.2324 21.6799 23.3418 21.6069C23.3783 21.5522 23.4284 21.5112 23.4922 21.4839C23.5924 21.4201 23.7064 21.3882 23.834 21.3882C23.9616 21.3791 24.0755 21.411 24.1758 21.4839C24.2214 21.5203 24.2669 21.5614 24.3125 21.6069C24.3581 21.6434 24.3945 21.6935 24.4219 21.7573C24.4401 21.8029 24.4583 21.853 24.4766 21.9077C24.5039 21.9624 24.513 22.0171 24.5039 22.0718C24.4948 22.1356 24.4857 22.1948 24.4766 22.2495C24.4674 22.3042 24.4447 22.3543 24.4082 22.3999C24.3626 22.4637 24.3262 22.5093 24.2988 22.5366C24.2715 22.564 24.2259 22.6004 24.1621 22.646C24.1257 22.6825 24.071 22.7098 23.998 22.728C23.8066 22.8374 23.6426 22.8739 23.5059 22.8374ZM27.1426 29.4409C27.015 29.4865 26.8737 29.4728 26.7188 29.3999C26.5729 29.327 26.4909 29.2176 26.4727 29.0718C26.3451 28.2697 26.263 27.4767 26.2266 26.6929C26.1992 25.8999 26.1855 25.1024 26.1855 24.3003C26.1855 24.1636 26.222 24.0542 26.2949 23.9722C26.3678 23.8901 26.4544 23.8354 26.5547 23.8081C26.6549 23.7808 26.7598 23.7762 26.8691 23.7944C26.9785 23.8127 27.0697 23.8582 27.1426 23.9312C27.3522 23.758 27.5755 23.6076 27.8125 23.48C28.0495 23.3524 28.2865 23.2703 28.5234 23.2339C28.7695 23.1883 29.0111 23.202 29.248 23.2749C29.485 23.3387 29.7083 23.48 29.918 23.6987C30.0911 23.881 30.2415 24.077 30.3691 24.2866C30.4967 24.4871 30.6107 24.7013 30.7109 24.9292C30.8477 24.5828 31.0391 24.2638 31.2852 23.9722C31.5312 23.6805 31.8457 23.4845 32.2285 23.3843C32.5111 23.3114 32.7344 23.3296 32.8984 23.439C33.0625 23.5392 33.2174 23.6987 33.3633 23.9175C33.5182 24.1453 33.6595 24.3778 33.7871 24.6147C33.9238 24.8517 34.0514 25.0933 34.1699 25.3394C34.2884 25.5854 34.4023 25.8315 34.5117 26.0776C34.6211 26.3237 34.7305 26.5653 34.8398 26.8022C34.9674 27.0666 35.0768 27.3309 35.168 27.5952C35.2682 27.8504 35.332 28.1239 35.3594 28.4155C35.3776 28.5705 35.3229 28.7026 35.1953 28.812C35.0768 28.9123 34.9492 28.9624 34.8125 28.9624C34.6576 28.9624 34.5299 28.9123 34.4297 28.812C34.3385 28.7026 34.2839 28.5705 34.2656 28.4155C34.2474 28.1968 34.1882 27.9871 34.0879 27.7866C33.9967 27.577 33.9056 27.3719 33.8145 27.1714C33.7142 26.9618 33.6139 26.7476 33.5137 26.5288C33.4225 26.3101 33.3268 26.0959 33.2266 25.8862C33.1263 25.6766 33.0169 25.467 32.8984 25.2573C32.7891 25.0477 32.6706 24.8426 32.543 24.6421C32.5247 24.6147 32.5065 24.5874 32.4883 24.5601C32.4701 24.5327 32.4518 24.5054 32.4336 24.478C32.2513 24.5783 32.1191 24.674 32.0371 24.7651C31.9551 24.8563 31.8776 24.9793 31.8047 25.1343C31.7409 25.271 31.6862 25.4168 31.6406 25.5718C31.6042 25.7176 31.5723 25.868 31.5449 26.0229C31.4902 26.3146 31.4492 26.62 31.4219 26.939C31.4036 27.1759 31.4036 27.4038 31.4219 27.6226C31.4492 27.8413 31.4401 28.0692 31.3945 28.3062C31.3672 28.452 31.2806 28.5614 31.1348 28.6343C30.998 28.7072 30.8613 28.7254 30.7246 28.689C30.597 28.6525 30.5013 28.5887 30.4375 28.4976C30.3828 28.3973 30.3464 28.2834 30.3281 28.1558C30.2917 27.8641 30.2507 27.5633 30.2051 27.2534C30.1595 26.9435 30.1003 26.6382 30.0273 26.3374C29.9544 26.0275 29.8587 25.7313 29.7402 25.4487C29.6309 25.1571 29.485 24.8882 29.3027 24.6421C29.1751 24.478 29.043 24.3687 28.9062 24.314C28.7786 24.2593 28.6191 24.2821 28.4277 24.3823C28.2181 24.4917 28.013 24.6239 27.8125 24.7788C27.612 24.9338 27.4342 25.1069 27.2793 25.2983C27.2884 25.8817 27.3066 26.465 27.334 27.0483C27.3704 27.6226 27.4342 28.1968 27.5254 28.771C27.5436 28.9259 27.5208 29.0672 27.457 29.1948C27.4023 29.3133 27.2975 29.3953 27.1426 29.4409ZM36.4668 23.9585C36.64 23.7215 36.8451 23.5119 37.082 23.3296C37.3281 23.1473 37.5879 23.006 37.8613 22.9058C38.1348 22.7964 38.4173 22.7417 38.709 22.7417C39.0007 22.7326 39.2923 22.7873 39.584 22.9058C39.8665 23.0151 40.1217 23.1655 40.3496 23.3569C40.5775 23.5392 40.7552 23.7762 40.8828 24.0679C40.9831 24.2866 41.0423 24.5236 41.0605 24.7788C41.0788 25.034 41.0104 25.2664 40.8555 25.4761C40.7188 25.6675 40.5501 25.8133 40.3496 25.9136C40.1582 26.0138 39.9486 26.0868 39.7207 26.1323C39.502 26.1779 39.2741 26.2007 39.0371 26.2007C38.8092 26.2007 38.5905 26.1961 38.3809 26.187C38.1439 26.1779 37.9069 26.1597 37.6699 26.1323C37.4421 26.105 37.2096 26.0776 36.9727 26.0503C37.0456 26.4604 37.1914 26.825 37.4102 27.144C37.6289 27.4631 37.9251 27.7046 38.2988 27.8687C38.3991 27.9051 38.4766 27.9325 38.5312 27.9507C38.5586 27.9598 38.5814 27.9689 38.5996 27.978C38.627 27.978 38.6543 27.978 38.6816 27.978C38.7546 27.9871 38.8138 27.9963 38.8594 28.0054C38.9141 28.0054 38.9642 28.0008 39.0098 27.9917C39.0736 27.9826 39.1146 27.978 39.1328 27.978C39.1602 27.9689 39.1875 27.9598 39.2148 27.9507C39.3151 27.9233 39.4017 27.8914 39.4746 27.855C39.5566 27.8185 39.6523 27.7593 39.7617 27.6772C39.8164 27.6317 39.8893 27.5633 39.9805 27.4722C40.0716 27.381 40.1491 27.299 40.2129 27.2261C40.304 27.0985 40.4134 27.0119 40.541 26.9663C40.6777 26.9207 40.8145 26.939 40.9512 27.021C41.0697 27.0939 41.1517 27.2078 41.1973 27.3628C41.252 27.5086 41.2337 27.6453 41.1426 27.7729C40.8783 28.1284 40.5638 28.4338 40.1992 28.689C39.8438 28.9351 39.4336 29.0672 38.9688 29.0854C38.5951 29.1037 38.235 29.0399 37.8887 28.894C37.5423 28.7391 37.237 28.534 36.9727 28.2788C36.6445 27.9598 36.3848 27.5907 36.1934 27.1714C36.002 26.7521 35.8971 26.3237 35.8789 25.8862C35.7969 25.8224 35.7331 25.745 35.6875 25.6538C35.651 25.5535 35.6374 25.4533 35.6465 25.353C35.6647 25.2528 35.7012 25.1616 35.7559 25.0796C35.8105 24.9884 35.8926 24.9292 36.002 24.9019C36.1022 24.5646 36.2572 24.2502 36.4668 23.9585ZM39.748 24.2866C39.6478 24.159 39.4928 24.0451 39.2832 23.9448C39.11 23.8719 38.9049 23.8354 38.668 23.8354C38.4401 23.8354 38.2441 23.8765 38.0801 23.9585C37.8704 24.0588 37.6836 24.2 37.5195 24.3823C37.3555 24.5555 37.2233 24.7515 37.123 24.9702C37.3418 24.9976 37.5605 25.0249 37.7793 25.0522C37.998 25.0796 38.2168 25.0978 38.4355 25.1069C38.554 25.1069 38.6725 25.1069 38.791 25.1069C38.9095 25.1069 39.028 25.1024 39.1465 25.0933C39.1829 25.0933 39.2148 25.0933 39.2422 25.0933C39.2786 25.0841 39.3151 25.0796 39.3516 25.0796C39.4336 25.0614 39.4928 25.0522 39.5293 25.0522C39.5749 25.0431 39.6204 25.0295 39.666 25.0112C39.7025 25.0021 39.748 24.9884 39.8027 24.9702C39.8483 24.952 39.8757 24.9383 39.8848 24.9292C39.8939 24.9201 39.9076 24.911 39.9258 24.9019L39.9668 24.7378C39.9486 24.7013 39.9349 24.6694 39.9258 24.6421C39.9258 24.6056 39.9167 24.5737 39.8984 24.5464C39.8893 24.519 39.8665 24.478 39.8301 24.4233C39.8027 24.3687 39.7754 24.3231 39.748 24.2866Z" fill="black"/>
</svg>
